<?xml version="1.0" encoding="UTF-8"?><svg id="Layer_2" xmlns="http://www.w3.org/2000/svg" viewBox="0 0 191.66 167.87"><defs><style>.cls-1{fill:#1d1d1c;}</style></defs><g id="Layer_1-2"><g><path class="cls-1" d="M96.85,104.24c-.38,9.94-1.55,20.25-3.49,29.99-1.67,8.4-3.55,14.97-5.59,19.55-2.04,4.57-4.2,7-6.63,7.45-2.43,.45-5.11-1.26-8.49-4.65-3.81-3.81-7.81-8.93-12.66-14.71-4.85-5.78-10.35-11.94-16.68-18.28-6.66-6.68-13.73-13.11-20.87-19.27C14.81,97.74,0,86.28,0,83.93c0-2.94,14.81-13.81,22.44-20.38,7.15-6.16,14.21-12.59,20.87-19.27,6.32-6.34,11.83-12.5,16.68-18.28,4.85-5.79,8.85-10.9,12.66-14.71,3.39-3.39,6.07-5.13,8.51-4.75,2.44,.37,4.59,2.63,6.59,6.9,2,4.27,3.85,10.41,5.44,18.3,1.59,7.9,2.83,17.31,3.34,27.59-7.84-1.16-11.76,1.53-19.6,2.7-.37-5.68-.17-29.01-13.31-22.44-5.35,2.68-11.7,8.31-18.95,16.15-8.09,8.75-21.94,22.82-21.94,28.2,0,5.62,13.81,19.41,21.89,28.12,7.22,7.78,13.15,13.52,18.93,16.04,5.09,2.22,8.4,1.39,10.62-3.16,2.21-4.55,3.2-12.33,2.47-22.86,8.08,.96,12.12,3.13,20.2,2.17Z"/><path class="cls-1" d="M103.69,0c4.34,3.93,6.51,5.89,10.85,9.82,4.27,18.68,8.53,37.37,12.8,56.05,11.68,1.53,23.36,3.06,35.05,4.59-9.01-13.94-18.03-27.87-27.04-41.81,4.32,3.91,6.48,5.86,10.79,9.77l28.84,28.84c2.52,2.52,16.68,13.43,16.68,16.68,0,8.8-39.66,39.66-45.52,45.52-4.32,3.91-6.48,5.86-10.79,9.77,9.94-15.37,19.88-30.73,29.81-46.1-12.17,1.04-24.34,2.09-36.51,3.13-4.7,20.6-9.41,41.2-14.11,61.8-4.34,3.93-6.51,5.89-10.85,9.82,2.35-27.72,6.68-56.11,6.68-83.93S106.03,27.72,103.69,0Z"/></g></g></svg>